<svg xmlns="http://www.w3.org/2000/svg" width="50" height="50"><path d="M47.5 10h-10V7.5A7.5 7.5 0 0030 0H20a7.5 7.5 0 00-7.5 7.5V10h-10A2.5 2.5 0 000 12.5v10a7.5 7.5 0 002.5 5.55V42.5A7.5 7.5 0 0010 50h30a7.5 7.5 0 007.5-7.5V28.05A7.5 7.5 0 0050 22.5v-10a2.5 2.5 0 00-2.5-2.5zm-30-2.5A2.5 2.5 0 0120 5h10a2.5 2.5 0 012.5 2.5V10h-15zm25 35A2.5 2.5 0 0140 45H10a2.5 2.5 0 01-2.5-2.5V30h5v2.5a2.5 2.5 0 005 0V30h15v2.5a2.5 2.5 0 005 0V30h5zm2.5-20a2.5 2.5 0 01-2.5 2.5h-5v-2.5a2.5 2.5 0 00-5 0V25h-15v-2.5a2.5 2.5 0 00-5 0V25h-5A2.5 2.5 0 015 22.5V15h40z" fill="#f16822"/></svg>