<svg xmlns="http://www.w3.org/2000/svg" width="30" height="30"><path d="M26.667 0H3.333A3.332 3.332 0 000 3.333v23.334A3.332 3.332 0 003.333 30h23.334A3.332 3.332 0 0030 26.667V3.333A3.332 3.332 0 0026.667 0zm-3.25 10.857v.572A11.644 11.644 0 0111.7 23.143a12 12 0 01-6.285-1.857h1a9.24 9.24 0 005.143-1.715A4.166 4.166 0 017.7 16.715a6.241 6.241 0 01.715.143 3.138 3.138 0 001.143-.143 4.128 4.128 0 01-3.285-4 7.128 7.128 0 001.857.572 4.681 4.681 0 01-1.857-3.572 3.281 3.281 0 01.572-2A11.6 11.6 0 0015.277 12c0-.285-.143-.572-.143-1a4.146 4.146 0 014.143-4.143 3.892 3.892 0 013 1.285 6.935 6.935 0 002.572-1 4.176 4.176 0 01-1.857 2.285 7.815 7.815 0 002.428-.715 9.647 9.647 0 01-2.003 2.145z" fill="#f16822"/></svg>