<svg xmlns="http://www.w3.org/2000/svg" width="69.765" height="48.372"><path d="M69.631 45.464s-12.44-5.554-26.376-1.254-29.8 8.332-43.255-8.9c0 0 12.44 5.549 26.374 1.251s29.8-8.33 43.256 8.908z" fill="#f16822"/><path d="M69.119 45.743S63.1 35.363 52.94 34.511 31.49 31.802 28.637 9.075c0 0 6.013 10.376 16.177 11.23s21.452 2.714 24.303 25.438z" fill="#676767"/><path d="M68.77 44.235s-2.269-10.17-10.168-14.777S42.158 19.046 45.415.796c0 0 2.272 10.171 10.169 14.778S72.029 25.986 68.77 44.235z" fill="#121212"/></svg>