<svg xmlns="http://www.w3.org/2000/svg" width="24.07" height="24"><path d="M21.086 13.238a3.8 3.8 0 01-.809-.145 11.4 11.4 0 01-1.582-.471 2.416 2.416 0 00-3 1.208l-.266.544a14.711 14.711 0 01-3.211-2.414 14.711 14.711 0 01-2.416-3.213l.507-.338a2.416 2.416 0 001.208-3 12.477 12.477 0 01-.471-1.582 9.073 9.073 0 01-.145-.821A3.623 3.623 0 007.281 0H3.657A3.623 3.623 0 00.034 4.119 22.949 22.949 0 0019.987 24h.459a3.615 3.615 0 003.624-3.64v-3.619a3.623 3.623 0 00-2.984-3.503zm.6 7.247a1.208 1.208 0 01-.411.906 1.268 1.268 0 01-.99.3A20.533 20.533 0 012.518 3.841a1.317 1.317 0 01.3-.99 1.208 1.208 0 01.906-.411h3.629a1.208 1.208 0 011.208.954q.072.5.181.978a13.432 13.432 0 00.556 1.872l-1.691.786a1.208 1.208 0 00-.589 1.606 17.5 17.5 0 008.455 8.455 1.28 1.28 0 001.606-.628l.749-1.691a16.536 16.536 0 001.908.556q.483.109.978.181a1.208 1.208 0 01.954 1.208z" fill="#777"/></svg>